<?xml version="1.0" encoding="iso-8859-1"?>
<!-- Uploaded to: SVG Repo, www.svgrepo.com, Generator: SVG Repo Mixer Tools -->
<svg version="1.1" id="Layer_1" xmlns="http://www.w3.org/2000/svg" xmlns:xlink="http://www.w3.org/1999/xlink" 
	 viewBox="0 0 512 512" xml:space="preserve">
<path style="fill:#FFB92E;" d="M227.4,30.593c-44.868,11.722-78.866,50.336-83.679,97.607H227.4V30.593z"/>
<g>
	<path style="fill:#F28838;" d="M284.598,128.199V22.385c0-7.898-6.403-14.3-14.3-14.3H241.7c-7.898,0-14.3,6.402-14.3,14.3v105.815
		H284.598z"/>
	<path style="fill:#F28838;" d="M386.231,145.88v-3.487c0-7.838-6.355-14.194-14.193-14.194h-85.311h-61.459h-85.31
		c-7.837,0-14.193,6.355-14.193,14.194v3.487c0,7.838,6.355,14.194,14.193,14.194h85.31h61.459h85.311
		C379.877,160.074,386.231,153.719,386.231,145.88z"/>
</g>
<path style="fill:#EF711D;" d="M269.84,10.24h-20.768c-7.897,0-14.299,6.402-14.299,14.3v105.815h20.768V24.54
	C255.541,16.642,261.944,10.24,269.84,10.24z"/>
<path style="fill:#FFAB31;" d="M233.696,41.423v-8.675c-44.868,11.722-78.865,50.336-83.68,97.607h22.708
	C176.686,91.457,200.417,58.437,233.696,41.423z"/>
<path style="fill:#EF711D;" d="M153.907,145.88v-3.487c0-7.838,6.354-14.194,14.193-14.194h-20.768
	c-7.838,0-14.193,6.355-14.193,14.194v3.487c0,7.838,6.354,14.194,14.193,14.194H168.1
	C160.261,160.074,153.907,153.719,153.907,145.88z"/>
<g>
	<path style="fill:#7C7A75;" d="M225.269,160.074h-85.31c-1.656,0-3.239-0.299-4.716-0.819
		c-7.127,24.263-11.093,51.076-11.093,79.278c0,39.815,7.892,76.868,21.453,107.869c1.909,2.017,3.182,4.643,3.477,7.56
		c0.158,0.329,0.32,0.656,0.48,0.983h28.563l33.654-12.602l0.046,0.059v-0.035l-0.019-0.024v-20.71
		c0.006,0.002,0.013,0.004,0.019,0.006c-31.478-11.253-54.01-41.326-54.01-76.673v-43.622
		c105.43,3.773,145.312-41.272,145.312-41.272h-16.398h-61.459V160.074z"/>
	<path style="fill:#7C7A75;" d="M376.754,159.254c-1.478,0.521-3.06,0.82-4.716,0.82h-68.913
		c17.921,27.259,51.057,27.59,51.057,27.59V236.2v8.768c0,35.36-22.548,65.443-54.048,76.686c0.019-0.006,0.038-0.013,0.057-0.019
		v20.71l33.654,12.602h28.59c0.141-0.287,0.28-0.571,0.419-0.859c0.276-3.022,1.594-5.74,3.588-7.8
		c13.531-30.978,21.403-67.987,21.403-107.754C387.847,210.331,383.883,183.518,376.754,159.254z"/>
</g>
<path style="fill:#F2CB9C;" d="M303.127,160.074c0,0-39.882,45.044-145.312,41.272v43.622c0,44.963,36.45,81.413,81.413,81.413
	h33.541c44.962,0,81.413-36.45,81.413-81.413v-57.304C354.183,187.664,321.048,187.333,303.127,160.074z"/>
<path style="fill:#EDBD88;" d="M186.746,244.968v-31.573v-6.507v-6.503c-2.649,0.066-5.336,0.108-8.083,0.108
	c-2.266,0-4.565-0.024-6.878-0.07c-1.734-0.059-3.415,0.631-4.657,1.848c-1.241,1.217-1.94,2.881-1.94,4.619v38.08
	c0,45.486,37.005,82.491,82.491,82.491h21.558C223.752,327.459,186.746,290.454,186.746,244.968z"/>
<g>
	<polygon style="fill:#6B6861;" points="190.861,159.254 169.303,159.254 168.932,160.074 190.49,160.074 	"/>
	<path style="fill:#6B6861;" d="M384.128,159.254c-1.478,0.521-3.06,0.82-4.716,0.82h4.944
		C384.278,159.802,384.207,159.524,384.128,159.254z"/>
	<path style="fill:#6B6861;" d="M161.437,307.727l0.006,0.002c-0.191-0.786-0.383-1.568-0.571-2.355
		c-0.233-0.967-0.479-1.922-0.702-2.895c-0.296-1.299-0.567-2.616-0.847-3.927c-0.201-0.938-0.414-1.866-0.606-2.809
		c-0.278-1.372-0.526-2.76-0.786-4.145c-0.166-0.9-0.349-1.79-0.51-2.696c-0.245-1.394-0.461-2.807-0.687-4.212
		c-0.148-0.91-0.307-1.812-0.446-2.727c-0.218-1.456-0.406-2.929-0.605-4.397c-0.117-0.878-0.251-1.75-0.362-2.633
		c-0.19-1.516-0.347-3.046-0.513-4.574c-0.093-0.85-0.2-1.693-0.287-2.548c-0.15-1.507-0.268-3.03-0.395-4.548
		c-0.075-0.887-0.164-1.769-0.232-2.66c-0.103-1.39-0.176-2.795-0.26-4.195c-0.063-1.032-0.14-2.056-0.192-3.091
		c-0.085-1.715-0.137-3.442-0.193-5.169c-0.023-0.731-0.064-1.454-0.08-2.186c-0.061-2.465-0.093-4.942-0.093-7.43
		c0-7.051,0.249-14.015,0.731-20.872c1.428-20.271,4.92-39.617,10.133-57.587H147.33c-1.656,0-3.238-0.299-4.716-0.82
		c-5.346,18.198-8.912,37.83-10.362,58.407c-0.482,6.858-0.731,13.822-0.731,20.872c0,2.488,0.031,4.964,0.093,7.43
		c0.017,0.733,0.057,1.456,0.08,2.186c0.056,1.727,0.108,3.454,0.193,5.169c0.052,1.036,0.129,2.06,0.192,3.091
		c0.084,1.4,0.157,2.805,0.26,4.195c0.068,0.891,0.156,1.773,0.232,2.66c0.126,1.518,0.246,3.04,0.395,4.548
		c0.085,0.855,0.194,1.698,0.287,2.548c0.165,1.527,0.323,3.058,0.513,4.574c0.11,0.883,0.244,1.755,0.362,2.633
		c0.198,1.468,0.386,2.94,0.605,4.397c0.139,0.916,0.299,1.817,0.446,2.727c0.225,1.407,0.442,2.819,0.687,4.212
		c0.16,0.905,0.343,1.796,0.51,2.696c0.259,1.384,0.508,2.772,0.786,4.145c0.192,0.943,0.405,1.871,0.606,2.809
		c0.28,1.311,0.551,2.628,0.847,3.927c0.223,0.973,0.47,1.929,0.702,2.895c0.3,1.246,0.591,2.499,0.907,3.733
		c0.257,1.001,0.537,1.984,0.804,2.977c0.317,1.18,0.623,2.368,0.956,3.538c0.291,1.024,0.607,2.029,0.908,3.044
		c0.333,1.119,0.654,2.246,1.002,3.353c0.324,1.037,0.672,2.054,1.009,3.082c0.347,1.064,0.686,2.137,1.047,3.193
		c0.378,1.105,0.781,2.19,1.173,3.284c0.341,0.953,0.67,1.915,1.022,2.859c0.443,1.19,0.911,2.356,1.37,3.53
		c0.323,0.826,0.634,1.663,0.965,2.481c0.507,1.254,1.037,2.483,1.562,3.718c0.299,0.704,0.586,1.421,0.89,2.119
		c0.001,0.001,0.001,0.002,0.003,0.003c0.015,0.037,0.03,0.075,0.046,0.112c1.909,2.017,3.183,4.643,3.478,7.56
		c0.157,0.329,0.32,0.656,0.48,0.983c0,0,5.703,6.358,15.901,14.539c8.122,6.729,16.16,12.333,24.081,16.952
		C171.344,352.326,161.437,307.727,161.437,307.727z"/>
</g>
<g>
	<polygon style="fill:#8BD8F7;" points="255.999,399.139 290.988,423.383 333.847,354.945 300.193,342.344 	"/>
	<polygon style="fill:#8BD8F7;" points="255.972,399.139 220.982,423.383 178.124,354.945 211.778,342.344 	"/>
</g>
<g>
	<path style="fill:#36A1CB;" d="M102.331,359.325C68.806,370.55,44.64,402.187,44.64,439.489v51.491
		c0,7.144,5.79,12.935,12.935,12.935h44.756V359.325z"/>
	<path style="fill:#36A1CB;" d="M409.614,359.308v144.608h44.81c7.143,0,12.935-5.79,12.935-12.935V439.49
		C467.359,402.168,443.166,370.517,409.614,359.308z"/>
	<path style="fill:#36A1CB;" d="M329.24,503.916h33.556V355.278c0-0.112,0.014-0.221,0.017-0.333h-28.966l-42.858,68.438
		l-34.99-24.244l-0.123-0.123l0.096,0.123l-34.99,24.244l-42.858-68.438h-28.992c0.002,0.111,0.017,0.221,0.017,0.333v148.637
		h150.989"/>
</g>
<polyline style="fill:#FFB92E;" points="149.148,503.916 149.148,469.405 362.796,469.405 362.796,503.916 "/>
<path style="fill:#E2AF7D;" d="M296.948,322.718c-7.64,2.376-15.758,3.663-24.179,3.663l0,0h-33.541l0,0
	c-8.422,0-16.539-1.287-24.179-3.663c-1.092-0.34-2.173-0.701-3.244-1.084v20.71l44.194,56.795l44.194-56.795v-20.71
	C299.121,322.017,298.04,322.379,296.948,322.718z"/>
<g>
	<path style="fill:#FFB92E;" d="M284.598,128.199h83.679c-4.814-47.27-38.811-85.884-83.679-97.607L284.598,128.199L284.598,128.199
		z"/>
	<path style="fill:#FFB92E;" d="M409.614,503.916V355.278c0-7.143-5.792-12.935-12.935-12.935H375.73
		c-7.144,0-12.935,5.792-12.935,12.935v148.637H409.614z"/>
	<path style="fill:#FFB92E;" d="M149.148,503.916V355.278c0-7.143-5.792-12.935-12.935-12.935h-20.949
		c-7.144,0-12.935,5.792-12.935,12.935v148.637H149.148z"/>
</g>
<g>
	<rect x="102.334" y="409.923" style="fill:#F28838;" width="46.824" height="93.992"/>
	<rect x="362.797" y="409.923" style="fill:#F28838;" width="46.824" height="93.992"/>
</g>
<path style="fill:#DB995D;" d="M240.737,363.052v-7.416v-13.294v-5.552v-1.864v-8.762c-6.332-0.454-12.465-1.629-18.313-3.447
	c-1.092-0.34-2.173-0.701-3.244-1.084v20.71l21.558,27.706V363.052z"/>
<path style="fill:#2B80AF;" d="M73.571,490.981V439.49c0-28.68,14.295-53.997,36.134-69.277v-10.888
	c-33.525,11.225-57.692,42.862-57.692,80.164v51.491c0,7.144,5.792,12.935,12.935,12.935h21.558
	C79.362,503.916,73.571,498.125,73.571,490.981z"/>
<path style="fill:#EF9A1D;" d="M120.484,342.344c-7.143,0-12.935,5.792-12.935,12.935v57.555h21.558v-57.555
	c0-7.04,5.63-12.756,12.63-12.919c-0.103-0.003-0.202-0.016-0.305-0.016H120.484z"/>
<rect x="107.551" y="409.923" style="fill:#EF711D;" width="21.558" height="93.992"/>
<path style="fill:#EF9A1D;" d="M380.95,342.344c-7.143,0-12.935,5.792-12.935,12.935v57.555h21.558v-57.555
	c0-7.04,5.63-12.756,12.63-12.919c-0.103-0.003-0.203-0.016-0.305-0.016H380.95z"/>
<rect x="368.014" y="409.923" style="fill:#EF711D;" width="21.558" height="93.992"/>
<path style="fill:#231F20;" d="M417.616,353.667c-0.828-10.837-9.892-19.408-20.937-19.408h-16.8
	c10.52-29.378,16.052-62.127,16.052-95.727c0-26.107-3.274-51.463-9.72-75.477c4.946-4.09,8.105-10.27,8.105-17.175v-3.487
	c0-11.148-8.238-20.382-18.941-22c-4.178-25.79-16.649-49.129-34.761-66.914v-5.015c0-4.466-3.618-8.084-8.084-8.084
	c-1.951,0-3.739,0.691-5.136,1.841c-10.398-7.639-22.086-13.66-34.711-17.68v-2.157C292.682,10.041,282.641,0,270.298,0h-28.598
	c-12.343,0-22.385,10.041-22.385,22.385v2.157c-12.625,4.019-24.313,10.041-34.711,17.68c-1.396-1.15-3.185-1.841-5.135-1.841
	c-4.466,0-8.084,3.618-8.084,8.084v5.014c-18.112,17.784-30.584,41.124-34.762,66.914c-10.701,1.619-18.94,10.853-18.94,22v3.487
	c0,6.905,3.158,13.086,8.105,17.175c-6.447,24.014-9.72,49.37-9.72,75.477c0,33.601,5.533,66.348,16.053,95.727h-16.854
	c-11.053,0-20.12,8.582-20.938,19.429c-34.779,14.103-57.772,47.873-57.772,85.802v51.492c0,11.59,9.429,21.019,21.019,21.019
	h44.757h46.818h150.989c4.466,0,8.084-3.618,8.084-8.084s-3.618-8.084-8.084-8.084H157.233v-18.343h197.479v18.343H329.24
	c-4.466,0-8.084,3.618-8.084,8.084S324.774,512,329.24,512h33.556h46.818h44.81c11.59,0,21.019-9.429,21.019-21.019v-51.492
	C475.443,401.534,452.429,367.755,417.616,353.667z M401.53,355.278v4.029v42.526h-30.65v-46.351
	c0.006-0.102,0.011-0.205,0.014-0.309c0-0.009-0.001-0.017-0.001-0.026c0.005-0.183,0.029-0.361,0.054-0.539
	c0.027-0.194,0.063-0.382,0.109-0.557c0.038-0.142,0.081-0.282,0.13-0.42c0.053-0.144,0.108-0.286,0.17-0.417
	c0.068-0.142,0.144-0.279,0.225-0.414c0.069-0.113,0.136-0.232,0.208-0.332c0.881-1.231,2.314-2.042,3.94-2.042h20.949
	C399.354,350.428,401.53,352.603,401.53,355.278z M155.463,346.861c-0.198-0.452-0.415-0.897-0.645-1.334
	c-0.134-0.253-0.278-0.5-0.421-0.747c-0.158-0.273-0.321-0.542-0.492-0.808c-0.143-0.223-0.285-0.446-0.435-0.663
	c-0.3-0.432-0.612-0.856-0.944-1.265c-13.275-30.82-20.289-66.583-20.289-103.509c0-24.359,2.997-47.998,8.916-70.375h137.872
	c-17.172,10.147-47.347,22.683-93.748,24.962c-0.107,0.005-0.215,0.01-0.322,0.015c-1.345,0.065-2.709,0.119-4.081,0.165
	c-0.354,0.012-0.707,0.025-1.063,0.036c-1.19,0.037-2.393,0.065-3.603,0.087c-0.411,0.008-0.817,0.018-1.23,0.025
	c-1.573,0.024-3.159,0.038-4.766,0.038c-3.967,0-8.04-0.073-12.107-0.219c-2.209-0.068-4.325,0.738-5.904,2.261
	c-1.579,1.524-2.471,3.624-2.471,5.817v43.622c0,1.361,0.042,2.717,0.103,4.068c0.02,0.448,0.049,0.895,0.075,1.342
	c0.055,0.907,0.124,1.81,0.207,2.711c0.046,0.512,0.088,1.026,0.143,1.536c0.11,1.012,0.241,2.021,0.386,3.025
	c0.129,0.91,0.281,1.813,0.438,2.714c0.085,0.484,0.167,0.968,0.26,1.449c0.162,0.843,0.335,1.679,0.521,2.514
	c0.061,0.276,0.127,0.55,0.191,0.825c1.677,7.246,4.233,14.153,7.555,20.609c0.033,0.065,0.066,0.129,0.099,0.194
	c0.475,0.917,0.961,1.828,1.467,2.726c0.019,0.036,0.041,0.07,0.06,0.105c0.909,1.61,1.867,3.188,2.87,4.736
	c0.17,0.263,0.334,0.529,0.508,0.791c0.387,0.583,0.786,1.157,1.186,1.73c0.371,0.532,0.746,1.061,1.127,1.585
	c0.328,0.448,0.654,0.898,0.991,1.341c0.728,0.961,1.469,1.911,2.236,2.844c0.016,0.019,0.03,0.039,0.046,0.058
	c0.877,1.065,1.786,2.105,2.712,3.129c0.087,0.096,0.176,0.191,0.263,0.286c8.396,9.213,18.738,16.736,30.548,21.844v9.598
	l-27.062,10.133h-21.198V346.861z M321.814,187.175c0.156,0.08,0.313,0.163,0.468,0.241c0.452,0.227,0.901,0.448,1.351,0.663
	c0.087,0.042,0.174,0.086,0.261,0.127c0.551,0.261,1.099,0.514,1.646,0.758c0.019,0.009,0.039,0.016,0.058,0.025
	c0.512,0.227,1.022,0.447,1.528,0.66c0.149,0.063,0.295,0.121,0.444,0.182c0.378,0.155,0.755,0.308,1.13,0.456
	c0.18,0.071,0.358,0.139,0.537,0.208c0.343,0.132,0.683,0.261,1.023,0.386c0.188,0.069,0.375,0.137,0.562,0.205
	c0.331,0.12,0.66,0.235,0.987,0.348c0.184,0.064,0.368,0.127,0.551,0.189c0.336,0.113,0.669,0.223,1.002,0.33
	c0.166,0.054,0.332,0.109,0.497,0.161c0.372,0.117,0.739,0.23,1.106,0.34c0.12,0.036,0.241,0.074,0.361,0.11
	c0.488,0.144,0.972,0.282,1.449,0.415c0.024,0.006,0.047,0.013,0.072,0.019c0.446,0.123,0.887,0.239,1.324,0.351
	c0.149,0.038,0.293,0.073,0.441,0.11c0.31,0.078,0.619,0.155,0.922,0.227c0.168,0.04,0.333,0.079,0.499,0.116
	c0.276,0.065,0.551,0.127,0.821,0.188c0.172,0.039,0.342,0.075,0.512,0.112c0.262,0.056,0.521,0.111,0.776,0.164
	c0.164,0.033,0.328,0.067,0.489,0.099c0.257,0.051,0.509,0.099,0.759,0.147c0.152,0.029,0.305,0.058,0.455,0.086
	c0.269,0.05,0.531,0.095,0.792,0.14c0.12,0.02,0.243,0.043,0.36,0.063c0.375,0.064,0.743,0.123,1.099,0.179v49.987
	c0,1.13-0.035,2.252-0.085,3.37c-0.018,0.397-0.045,0.791-0.07,1.187c-0.043,0.708-0.098,1.413-0.162,2.116
	c-0.044,0.484-0.089,0.968-0.143,1.449c-0.065,0.584-0.143,1.164-0.222,1.744c-0.306,2.247-0.709,4.47-1.218,6.659
	c-0.05,0.215-0.098,0.431-0.149,0.645c-0.194,0.802-0.4,1.6-0.621,2.393c-0.03,0.109-0.063,0.218-0.093,0.327
	c-0.996,3.518-2.247,6.943-3.741,10.246c-0.016,0.034-0.031,0.07-0.047,0.105c-1.425,3.139-3.075,6.164-4.918,9.064
	c-0.204,0.319-0.404,0.639-0.612,0.955c-0.318,0.483-0.643,0.961-0.972,1.437c-0.327,0.47-0.658,0.936-0.995,1.398
	c-0.258,0.355-0.514,0.71-0.778,1.061c-1.329,1.756-2.729,3.455-4.207,5.083c-0.037,0.041-0.075,0.081-0.112,0.122
	c-0.763,0.836-1.544,1.658-2.344,2.459c-0.005,0.005-0.012,0.012-0.017,0.017c-5.807,5.804-12.579,10.643-20.053,14.251
	c-0.003,0.001-0.007,0.003-0.009,0.004c-0.988,0.478-1.993,0.927-3.005,1.361c-0.151,0.065-0.301,0.129-0.452,0.192
	c-0.914,0.384-1.838,0.747-2.77,1.094c-0.158,0.059-0.316,0.122-0.474,0.18c-2.102,0.766-4.25,1.436-6.437,2.01
	c-0.3,0.079-0.601,0.151-0.902,0.225c-0.78,0.194-1.566,0.376-2.356,0.545c-0.337,0.072-0.676,0.146-1.014,0.213
	c-0.938,0.186-1.882,0.357-2.833,0.508c-0.143,0.023-0.285,0.051-0.428,0.073c-1.077,0.164-2.163,0.299-3.254,0.415
	c-0.328,0.035-0.656,0.061-0.985,0.093c-0.818,0.077-1.639,0.139-2.465,0.188c-0.335,0.019-0.672,0.041-1.008,0.057
	c-1.119,0.051-2.241,0.085-3.372,0.085h-33.541c-1.131,0-2.254-0.035-3.372-0.085c-0.336-0.015-0.672-0.037-1.007-0.057
	c-0.826-0.049-1.647-0.112-2.465-0.188c-0.329-0.03-0.659-0.058-0.986-0.093c-1.091-0.116-2.176-0.25-3.253-0.415
	c-0.146-0.023-0.289-0.051-0.433-0.074c-0.949-0.151-1.892-0.32-2.827-0.507c-0.34-0.068-0.677-0.141-1.015-0.213
	c-0.79-0.169-1.576-0.35-2.356-0.545c-0.3-0.074-0.6-0.147-0.9-0.224c-3.367-0.885-6.642-1.998-9.803-3.333
	c-0.086-0.036-0.171-0.074-0.257-0.111c-1.028-0.439-2.047-0.898-3.05-1.382c-0.02-0.01-0.042-0.021-0.063-0.03
	c-8.474-4.094-16.042-9.773-22.326-16.646c-0.077-0.084-0.154-0.167-0.231-0.251c-0.741-0.818-1.465-1.651-2.169-2.503
	c-0.019-0.024-0.04-0.046-0.059-0.07c-0.674-0.816-1.325-1.652-1.964-2.497c-0.273-0.362-0.536-0.733-0.802-1.101
	c-0.326-0.447-0.647-0.897-0.963-1.352c-0.344-0.498-0.682-0.999-1.014-1.506c-0.194-0.296-0.384-0.595-0.573-0.895
	c-1.862-2.933-3.525-5.994-4.958-9.172c-0.003-0.006-0.006-0.014-0.01-0.02c-1.498-3.322-2.751-6.766-3.746-10.304
	c-0.022-0.079-0.045-0.156-0.067-0.234c-0.222-0.801-0.429-1.607-0.624-2.418c-0.05-0.207-0.096-0.416-0.144-0.624
	c-0.506-2.181-0.907-4.395-1.21-6.633c-0.079-0.579-0.157-1.158-0.222-1.741c-0.054-0.48-0.098-0.961-0.142-1.443
	c-0.064-0.704-0.117-1.41-0.162-2.119c-0.025-0.392-0.052-0.785-0.07-1.179c-0.051-1.117-0.085-2.238-0.085-3.367v-35.341
	c1.448,0.019,2.887,0.027,4.313,0.027c0.005,0,0.004,0,0.01,0c2.134,0,4.23-0.027,6.307-0.066c0.458-0.009,0.916-0.017,1.371-0.028
	c2.054-0.047,4.087-0.108,6.087-0.191c0.151-0.006,0.297-0.015,0.447-0.022c1.907-0.082,3.783-0.183,5.641-0.298
	c0.366-0.023,0.735-0.044,1.101-0.068c1.955-0.127,3.887-0.269,5.788-0.429c0.212-0.018,0.421-0.038,0.634-0.056
	c1.785-0.154,3.545-0.324,5.282-0.507c0.254-0.027,0.512-0.052,0.765-0.079c1.866-0.202,3.705-0.418,5.516-0.65
	c0.227-0.029,0.452-0.06,0.679-0.089c1.731-0.226,3.44-0.465,5.12-0.718c0.125-0.018,0.252-0.037,0.376-0.055
	c1.782-0.271,3.531-0.556,5.256-0.855c0.213-0.037,0.426-0.075,0.638-0.112c3.459-0.608,6.805-1.269,10.037-1.977
	c0.188-0.041,0.375-0.083,0.562-0.124c3.239-0.718,6.364-1.481,9.379-2.284c0.151-0.04,0.303-0.081,0.453-0.121
	c3.04-0.816,5.965-1.672,8.779-2.558c0.1-0.031,0.201-0.063,0.3-0.094c2.861-0.907,5.606-1.843,8.237-2.805
	c0.039-0.014,0.079-0.028,0.117-0.042c1.32-0.483,2.612-0.971,3.874-1.465c0.032-0.012,0.064-0.025,0.095-0.038
	c2.529-0.99,4.943-1.998,7.247-3.017c0.05-0.023,0.099-0.044,0.15-0.067c2.28-1.011,4.451-2.031,6.513-3.052
	c0.054-0.027,0.108-0.053,0.161-0.08c2.053-1.02,3.999-2.038,5.841-3.049c0.046-0.026,0.093-0.051,0.139-0.077
	c1.843-1.014,3.581-2.021,5.215-3.009c0.032-0.019,0.065-0.039,0.097-0.058c1.643-0.996,3.181-1.974,4.618-2.925
	c0.017-0.011,0.036-0.023,0.053-0.034c0.716-0.475,1.407-0.943,2.072-1.403c0.017-0.012,0.033-0.024,0.051-0.036
	c1.322-0.916,2.545-1.801,3.67-2.646c0.04-0.03,0.079-0.059,0.119-0.089c1.094-0.825,2.095-1.609,3.006-2.349
	c0.022-0.017,0.046-0.037,0.067-0.054c0.027,0.031,0.056,0.06,0.083,0.091c0.083,0.094,0.168,0.183,0.252,0.276
	c0.403,0.448,0.81,0.89,1.219,1.322c0.151,0.158,0.304,0.313,0.456,0.469c0.348,0.359,0.698,0.715,1.051,1.062
	c0.172,0.169,0.345,0.335,0.518,0.501c0.338,0.327,0.679,0.648,1.022,0.964c0.18,0.166,0.36,0.33,0.54,0.493
	c0.345,0.312,0.692,0.617,1.04,0.917c0.175,0.151,0.349,0.303,0.524,0.451c0.374,0.316,0.749,0.624,1.126,0.929
	c0.15,0.121,0.299,0.245,0.448,0.363c0.466,0.37,0.935,0.731,1.405,1.083c0.06,0.045,0.121,0.094,0.181,0.139
	c0.549,0.41,1.099,0.807,1.651,1.194c0.045,0.032,0.092,0.061,0.137,0.094c0.49,0.342,0.983,0.676,1.476,1
	c0.149,0.098,0.299,0.192,0.447,0.289c0.391,0.253,0.783,0.503,1.175,0.747c0.179,0.111,0.358,0.219,0.537,0.328
	c0.366,0.222,0.732,0.441,1.098,0.654c0.186,0.109,0.374,0.217,0.561,0.323c0.365,0.208,0.73,0.412,1.094,0.611
	c0.18,0.099,0.36,0.197,0.541,0.294C321.046,186.778,321.43,186.978,321.814,187.175z M221.575,332.708
	c1.229,0.247,2.462,0.468,3.7,0.663c0.254,0.04,0.51,0.078,0.765,0.115c1.269,0.189,2.543,0.354,3.82,0.487
	c0.207,0.022,0.414,0.039,0.621,0.059c1.343,0.132,2.689,0.237,4.039,0.308c0.12,0.006,0.24,0.009,0.361,0.015
	c1.445,0.07,2.894,0.11,4.346,0.11h33.541c1.452,0,2.902-0.041,4.347-0.11c0.12-0.005,0.239-0.009,0.359-0.015
	c1.351-0.07,2.698-0.177,4.041-0.308c0.206-0.021,0.413-0.038,0.618-0.059c1.278-0.134,2.552-0.299,3.822-0.487
	c0.254-0.038,0.509-0.074,0.763-0.114c1.238-0.195,2.473-0.416,3.701-0.663c0.255-0.052,0.511-0.105,0.765-0.158
	c0.306-0.065,0.614-0.123,0.921-0.191v7.209l-36.109,46.407l-36.107-46.408v-7.209c0.306,0.068,0.614,0.126,0.921,0.191
	C221.065,332.604,221.32,332.657,221.575,332.708z M190.23,359.045l18.818-7.046l35.297,45.362l-21.006,14.554L190.23,359.045z
	 M267.626,397.36l35.297-45.362l9.493,3.555l9.325,3.491l-33.11,52.871L267.626,397.36z M335.31,346.861l-27.034-10.124v-9.609
	c11.83-5.116,22.186-12.654,30.591-21.888c0.065-0.071,0.13-0.141,0.195-0.212c1.771-1.959,3.456-3.99,5.046-6.093
	c0.313-0.413,0.617-0.831,0.923-1.248c0.411-0.563,0.814-1.13,1.212-1.702c0.377-0.542,0.753-1.083,1.119-1.634
	c0.226-0.342,0.442-0.689,0.663-1.034c0.922-1.429,1.804-2.886,2.645-4.369c0.058-0.102,0.119-0.203,0.176-0.305
	c0.487-0.868,0.957-1.746,1.416-2.632c0.055-0.106,0.108-0.211,0.163-0.317c1.923-3.747,3.589-7.643,4.977-11.671
	c0.005-0.014,0.01-0.029,0.015-0.044c0.985-2.866,1.827-5.797,2.52-8.786c0.069-0.296,0.14-0.593,0.206-0.89
	c0.182-0.821,0.354-1.646,0.513-2.476c0.096-0.498,0.181-0.999,0.268-1.5c0.151-0.868,0.297-1.738,0.424-2.614
	c0.149-1.027,0.281-2.059,0.395-3.095c0.055-0.507,0.097-1.016,0.142-1.525c0.083-0.904,0.152-1.812,0.208-2.723
	c0.027-0.445,0.055-0.889,0.075-1.337c0.061-1.352,0.103-2.707,0.103-4.069v-57.304c0-4.433-3.571-8.04-8.003-8.084
	c-0.006,0-0.044-0.001-0.082-0.002c-0.019,0-0.051-0.001-0.078-0.002c-0.038-0.001-0.087-0.003-0.14-0.005
	c-0.042-0.001-0.087-0.003-0.137-0.005c-0.066-0.003-0.146-0.008-0.225-0.011c-0.056-0.003-0.108-0.005-0.171-0.01
	c-0.141-0.009-0.302-0.018-0.476-0.031c-0.063-0.004-0.135-0.011-0.201-0.015c-0.134-0.01-0.275-0.022-0.425-0.034
	c-0.086-0.008-0.177-0.015-0.267-0.024c-0.152-0.014-0.313-0.029-0.479-0.046c-0.098-0.01-0.193-0.019-0.295-0.03
	c-0.247-0.026-0.508-0.056-0.781-0.088c-0.069-0.009-0.141-0.017-0.212-0.027c-0.255-0.031-0.52-0.067-0.796-0.105
	c-0.115-0.016-0.236-0.033-0.355-0.051c-0.231-0.033-0.469-0.069-0.712-0.107c-0.129-0.02-0.259-0.04-0.39-0.061
	c-0.279-0.045-0.567-0.095-0.86-0.147c-0.101-0.017-0.198-0.033-0.302-0.053c-0.389-0.07-0.79-0.148-1.202-0.231
	c-0.119-0.024-0.243-0.051-0.363-0.075c-0.308-0.064-0.622-0.13-0.942-0.202c-0.154-0.035-0.309-0.07-0.466-0.106
	c-0.317-0.073-0.639-0.15-0.966-0.23c-0.144-0.036-0.287-0.069-0.432-0.107c-0.467-0.117-0.94-0.241-1.424-0.375
	c-0.059-0.016-0.121-0.036-0.181-0.052c-0.427-0.119-0.859-0.245-1.298-0.377c-0.164-0.05-0.329-0.101-0.494-0.153
	c-0.354-0.11-0.71-0.224-1.07-0.343c-0.172-0.057-0.345-0.113-0.518-0.172c-0.418-0.141-0.84-0.29-1.264-0.444
	c-0.107-0.039-0.213-0.075-0.32-0.114c-0.527-0.194-1.06-0.4-1.595-0.614c-0.144-0.058-0.29-0.12-0.434-0.179
	c-0.401-0.164-0.804-0.334-1.209-0.51c-0.182-0.079-0.365-0.161-0.549-0.241c-0.398-0.178-0.798-0.362-1.198-0.552
	c-0.162-0.077-0.322-0.151-0.484-0.229c-0.552-0.267-1.106-0.545-1.66-0.836c-0.078-0.041-0.155-0.085-0.232-0.126
	c-0.477-0.254-0.956-0.517-1.435-0.79c-0.179-0.102-0.359-0.208-0.538-0.313c-0.392-0.23-0.784-0.465-1.176-0.707
	c-0.182-0.112-0.364-0.224-0.545-0.34c-0.459-0.292-0.917-0.593-1.373-0.903c-0.098-0.067-0.197-0.129-0.295-0.197
	c-0.488-0.336-0.973-0.69-1.456-1.048h49.089c5.919,22.378,8.916,46.015,8.916,70.375c0,36.866-6.99,72.574-20.225,103.357
	c-0.004,0.005-0.009,0.011-0.013,0.017c-0.021,0.025-0.038,0.051-0.058,0.075c-0.351,0.43-0.681,0.876-0.997,1.332
	c-0.127,0.183-0.249,0.371-0.371,0.558c-0.203,0.314-0.396,0.632-0.581,0.955c-0.124,0.216-0.251,0.428-0.368,0.648
	c-0.239,0.455-0.466,0.916-0.672,1.386H335.31V346.861z M358.934,120.115h-18.32V78.086
	C349.625,90.417,355.995,104.724,358.934,120.115z M324.445,60.514v59.601h-31.763V41.623
	C304.446,46.026,315.167,52.481,324.445,60.514z M235.484,22.385c0-3.428,2.789-6.216,6.216-6.216h28.598
	c3.428,0,6.216,2.789,6.216,6.216v8.208v89.522h-41.029V30.593v-8.208H235.484z M219.316,120.115h-31.763V60.513
	c9.279-8.034,19.999-14.487,31.763-18.89V120.115z M171.384,78.085v42.029h-18.32C156.003,104.724,162.373,90.416,171.384,78.085z
	 M133.851,142.393c0-3.368,2.74-6.109,6.108-6.109h3.762H227.4h57.197h83.679h3.762c3.368,0,6.108,2.741,6.108,6.109v3.487
	c0,2.62-1.662,4.855-3.984,5.72c-0.032,0.011-0.065,0.017-0.097,0.029c-0.337,0.119-0.676,0.209-1.013,0.268
	c-0.003,0-0.005,0.001-0.009,0.001c-0.337,0.059-0.673,0.089-1.005,0.089h-68.913H139.959c-0.332,0-0.667-0.03-1.002-0.089
	c-0.004-0.001-0.01-0.001-0.014-0.002c-0.337-0.06-0.676-0.15-1.013-0.268c-0.027-0.01-0.054-0.015-0.081-0.024
	c-2.329-0.862-3.998-3.1-3.998-5.726V142.393z M110.415,355.278c0-2.674,2.176-4.851,4.851-4.851h20.949
	c1.624,0,3.057,0.81,3.938,2.039c0.078,0.107,0.149,0.236,0.223,0.358c0.078,0.132,0.153,0.263,0.219,0.402
	c0.057,0.119,0.107,0.248,0.156,0.378c0.057,0.155,0.107,0.315,0.149,0.478c0.038,0.144,0.068,0.295,0.092,0.452
	c0.031,0.198,0.055,0.398,0.061,0.603c0.003,0.116,0.008,0.232,0.014,0.351v46.345h-30.65v-42.509v-4.046H110.415z M52.723,490.981
	v-51.492c0-29.01,16.29-55.086,41.524-68.018v38.446v85.915H57.574C54.899,495.832,52.723,493.655,52.723,490.981z M110.415,418.002
	h30.65v51.403v26.427h-30.65V418.002z M157.233,409.918V363.03h16.415l40.482,64.645c1.173,1.872,3.06,3.183,5.225,3.628
	c0.54,0.111,1.085,0.165,1.628,0.165c0.011,0,0.02-0.002,0.031-0.002c0.348-0.001,0.693-0.032,1.036-0.079
	c0.099-0.013,0.197-0.028,0.296-0.045c0.34-0.058,0.676-0.13,1.005-0.232c0.022-0.006,0.042-0.013,0.064-0.019
	c0.333-0.105,0.656-0.238,0.975-0.387c0.085-0.04,0.169-0.081,0.254-0.124c0.323-0.165,0.641-0.343,0.943-0.552l22.302-15.453
	v46.745h-90.655v-51.402H157.233z M264.056,461.321v-46.764l22.329,15.471c0.304,0.21,0.623,0.39,0.949,0.555
	c0.08,0.041,0.161,0.08,0.241,0.117c0.33,0.153,0.664,0.293,1.01,0.4c0.002,0.001,0.005,0.001,0.008,0.002
	c0.342,0.106,0.691,0.181,1.043,0.24c0.092,0.015,0.182,0.029,0.275,0.042c0.355,0.047,0.711,0.081,1.07,0.081
	c0.002,0,0.005,0,0.008,0c0.542,0,1.088-0.055,1.628-0.165c2.164-0.445,4.052-1.756,5.225-3.628l40.482-64.645h16.389v46.888v51.403
	h-90.656V461.321z M370.88,469.405v-51.403h30.65v77.829h-30.65V469.405z M459.275,490.981c0,2.674-2.175,4.851-4.851,4.851h-36.726
	v-85.914v-38.474c25.265,12.921,41.577,39.009,41.577,68.046V490.981z"/>
</svg>